<svg width="15" height="19" viewBox="0 0 15 19" fill="none" xmlns="http://www.w3.org/2000/svg">
<path d="M7.773 0.281287C7.45579 -0.035967 6.97989 -0.115308 6.58329 0.201983C6.58329 0.201983 6.50399 0.201983 6.50399 0.281287C5.86944 1.07444 0 8.21294 0 11.8615C0 15.8273 3.17266 19 7.1385 19C11.1043 19 14.277 15.8273 14.277 11.8615C14.277 8.21294 8.4076 1.07444 7.773 0.281287Z" fill="url(#paint0_linear_2_21)"/>
<path d="M5.34358 13.9842L10.1108 9.21698L8.9891 8.0953L4.22191 12.8625L5.34358 13.9842Z" fill="white"/>
<path d="M4.75899 10.2752C5.19703 10.2752 5.55214 9.92004 5.55214 9.482C5.55214 9.04395 5.19703 8.68884 4.75899 8.68884C4.32094 8.68884 3.96583 9.04395 3.96583 9.482C3.96583 9.92004 4.32094 10.2752 4.75899 10.2752Z" fill="white"/>
<path d="M9.518 13.4479C9.956 13.4479 10.3111 13.0928 10.3111 12.6547C10.3111 12.2167 9.956 11.8616 9.518 11.8616C9.0799 11.8616 8.7248 12.2167 8.7248 12.6547C8.7248 13.0928 9.0799 13.4479 9.518 13.4479Z" fill="white"/>
<defs>
<linearGradient id="paint0_linear_2_21" x1="1.54655" y1="16.3829" x2="12.7114" y2="5.22217" gradientUnits="userSpaceOnUse">
<stop stop-color="#34CDFA"/>
<stop offset="1" stop-color="#E8D9F1"/>
</linearGradient>
</defs>
</svg>
