<svg width="19" height="19" viewBox="0 0 19 19" fill="none" xmlns="http://www.w3.org/2000/svg">
<g opacity="0.88">
<path d="M15.4728 13.2818C15.0438 13.2816 14.6216 13.1734 14.2454 12.9672C13.8691 12.7609 13.5508 12.4633 13.3199 12.1016C13.0891 12.4634 12.7709 12.7611 12.3946 12.9674C12.0184 13.1737 11.5962 13.2818 11.1671 13.2818C10.738 13.2818 10.3158 13.1737 9.9395 12.9674C9.5632 12.7611 9.245 12.4634 9.0142 12.1016C8.7835 12.4634 8.4652 12.7611 8.089 12.9674C7.7127 13.1737 7.2905 13.2818 6.8614 13.2818C6.4323 13.2818 6.0101 13.1737 5.6339 12.9674C5.2576 12.7611 4.9394 12.4634 4.7086 12.1016C4.4112 12.5675 3.9708 12.9245 3.4534 13.1188C2.936 13.3132 2.3695 13.3344 1.839 13.1795C1.3084 13.0245 0.84247 12.7017 0.51101 12.2594C0.17954 11.8171 0.000460557 11.2793 0.000650557 10.7265C0.000650557 10.6199 0.0430303 10.5175 0.11847 10.4421C0.19391 10.3667 0.29623 10.3243 0.40292 10.3243C0.50961 10.3243 0.61193 10.3667 0.68737 10.4421C0.76281 10.5175 0.80519 10.6199 0.80519 10.7265C0.80253 10.9581 0.84585 11.1879 0.93264 11.4026C1.0194 11.6174 1.1479 11.8127 1.3108 11.9774C1.4736 12.1421 1.6675 12.2729 1.8812 12.3621C2.0949 12.4513 2.3242 12.4973 2.5557 12.4973C2.7873 12.4973 3.0166 12.4513 3.2303 12.3621C3.444 12.2729 3.6379 12.1421 3.8007 11.9774C3.9636 11.8127 4.0921 11.6174 4.1789 11.4026C4.2656 11.1879 4.309 10.9581 4.3063 10.7265C4.3063 10.6199 4.3487 10.5175 4.4241 10.4421C4.4996 10.3667 4.6019 10.3243 4.7086 10.3243C4.8153 10.3243 4.9176 10.3667 4.993 10.4421C5.0685 10.5175 5.1108 10.6199 5.1108 10.7265C5.1082 10.9581 5.1515 11.1879 5.2383 11.4026C5.3251 11.6174 5.4536 11.8127 5.6164 11.9774C5.7792 12.1421 5.9731 12.2729 6.1868 12.3621C6.4005 12.4513 6.6298 12.4973 6.8614 12.4973C7.093 12.4973 7.3223 12.4513 7.536 12.3621C7.7497 12.2729 7.9436 12.1421 8.1064 11.9774C8.2692 11.8127 8.3977 11.6174 8.4845 11.4026C8.5713 11.1879 8.6146 10.9581 8.612 10.7265C8.612 10.6199 8.6544 10.5175 8.7298 10.4421C8.8052 10.3667 8.9075 10.3243 9.0142 10.3243C9.1209 10.3243 9.2232 10.3667 9.2987 10.4421C9.3741 10.5175 9.4165 10.6199 9.4165 10.7265C9.4139 10.9581 9.4572 11.1879 9.544 11.4026C9.6307 11.6174 9.7593 11.8127 9.9221 11.9774C10.0849 12.1421 10.2788 12.2729 10.4925 12.3621C10.7062 12.4513 10.9355 12.4973 11.1671 12.4973C11.3987 12.4973 11.6279 12.4513 11.8417 12.3621C12.0554 12.2729 12.2492 12.1421 12.4121 11.9774C12.5749 11.8127 12.7034 11.6174 12.7902 11.4026C12.877 11.1879 12.9203 10.9581 12.9176 10.7265C12.9176 10.6199 12.96 10.5175 13.0355 10.4421C13.1109 10.3667 13.2132 10.3243 13.3199 10.3243C13.4266 10.3243 13.5289 10.3667 13.6043 10.4421C13.6798 10.5175 13.7222 10.6199 13.7222 10.7265C13.7195 10.9581 13.7628 11.1879 13.8496 11.4026C13.9364 11.6174 14.0649 11.8127 14.2277 11.9774C14.3906 12.1421 14.5844 12.2729 14.7981 12.3621C15.0119 12.4513 15.2411 12.4973 15.4727 12.4973C15.7043 12.4973 15.9336 12.4513 16.1473 12.3621C16.361 12.2729 16.5549 12.1421 16.7177 11.9774C16.8805 11.8127 17.0091 11.6174 17.0958 11.4026C17.1826 11.1879 17.2259 10.9581 17.2233 10.7265C17.2233 10.6199 17.2657 10.5175 17.3411 10.4421C17.4166 10.3667 17.5189 10.3243 17.6256 10.3243C17.7322 10.3243 17.8346 10.3667 17.91 10.4421C17.9854 10.5175 18.0278 10.6199 18.0278 10.7265C18.0271 11.404 17.7577 12.0534 17.2787 12.5325C16.7997 13.0115 16.1503 13.281 15.4728 13.2818Z" fill="#AFD1FD"/>
<path d="M15.4729 18.0276C15.0438 18.0275 14.6216 17.9192 14.2454 17.7129C13.8691 17.5067 13.5508 17.2089 13.3199 16.8473C13.0892 17.2091 12.771 17.5069 12.3947 17.7132C12.0184 17.9195 11.5962 18.0277 11.1671 18.0277C10.738 18.0277 10.3158 17.9195 9.9395 17.7132C9.5632 17.5069 9.245 17.2091 9.0143 16.8473C8.7835 17.2091 8.4653 17.5069 8.0891 17.7132C7.7128 17.9195 7.2906 18.0277 6.8614 18.0277C6.4323 18.0277 6.0101 17.9195 5.6338 17.7132C5.2576 17.5069 4.9394 17.2091 4.7086 16.8473C4.4115 17.3134 3.9711 17.6706 3.4536 17.8652C2.9362 18.0598 2.3696 18.0812 1.8389 17.9264C1.3082 17.7715 0.84205 17.4486 0.51048 17.0063C0.1789 16.5639 -0.000219798 16.0259 2.02415e-07 15.4731C2.02415e-07 15.3664 0.04238 15.2641 0.11782 15.1887C0.19326 15.1132 0.295581 15.0708 0.402271 15.0708C0.508961 15.0708 0.61128 15.1132 0.68672 15.1887C0.76216 15.2641 0.80454 15.3664 0.80454 15.4731C0.80189 15.7047 0.8452 15.9345 0.93199 16.1492C1.0188 16.3639 1.1473 16.5593 1.3101 16.724C1.4729 16.8887 1.6668 17.0194 1.8805 17.1086C2.0942 17.1979 2.3235 17.2438 2.5551 17.2438C2.7867 17.2438 3.016 17.1979 3.2297 17.1086C3.4434 17.0194 3.6373 16.8887 3.8001 16.724C3.9629 16.5593 4.0914 16.3639 4.1782 16.1492C4.265 15.9345 4.3083 15.7047 4.3057 15.4731C4.3057 15.3664 4.348 15.2641 4.4235 15.1887C4.4989 15.1132 4.6012 15.0708 4.7079 15.0708C4.8146 15.0708 4.9169 15.1132 4.9924 15.1887C5.0678 15.2641 5.1102 15.3664 5.1102 15.4731C5.1075 15.7047 5.1509 15.9345 5.2376 16.1492C5.3244 16.3639 5.453 16.5593 5.6158 16.724C5.7786 16.8887 5.9725 17.0194 6.1862 17.1086C6.3999 17.1979 6.6292 17.2438 6.8608 17.2438C7.0923 17.2438 7.3216 17.1979 7.5353 17.1086C7.7491 17.0194 7.9429 16.8887 8.1057 16.724C8.2686 16.5593 8.3971 16.3639 8.4839 16.1492C8.5707 15.9345 8.614 15.7047 8.6113 15.4731C8.6113 15.3664 8.6537 15.2641 8.7291 15.1887C8.8046 15.1132 8.9069 15.0708 9.0136 15.0708C9.1203 15.0708 9.2226 15.1132 9.298 15.1887C9.3735 15.2641 9.4159 15.3664 9.4159 15.4731C9.4132 15.7047 9.4565 15.9345 9.5433 16.1492C9.6301 16.3639 9.7586 16.5593 9.9214 16.724C10.0843 16.8887 10.2781 17.0194 10.4918 17.1086C10.7055 17.1979 10.9348 17.2438 11.1664 17.2438C11.398 17.2438 11.6273 17.1979 11.841 17.1086C12.0547 17.0194 12.2486 16.8887 12.4114 16.724C12.5742 16.5593 12.7027 16.3639 12.7895 16.1492C12.8763 15.9345 12.9196 15.7047 12.917 15.4731C12.917 15.3664 12.9594 15.2641 13.0348 15.1887C13.1102 15.1132 13.2126 15.0708 13.3193 15.0708C13.4259 15.0708 13.5283 15.1132 13.6037 15.1887C13.6791 15.2641 13.7215 15.3664 13.7215 15.4731C13.7189 15.7047 13.7622 15.9345 13.849 16.1492C13.9358 16.3639 14.0643 16.5593 14.2271 16.724C14.3899 16.8887 14.5838 17.0194 14.7975 17.1086C15.0112 17.1979 15.2405 17.2438 15.4721 17.2438C15.7037 17.2438 15.933 17.1979 16.1467 17.1086C16.3604 17.0194 16.5542 16.8887 16.7171 16.724C16.8799 16.5593 17.0084 16.3639 17.0952 16.1492C17.182 15.9345 17.2253 15.7047 17.2226 15.4731C17.2226 15.3664 17.265 15.2641 17.3405 15.1887C17.4159 15.1132 17.5182 15.0708 17.6249 15.0708C17.7316 15.0708 17.8339 15.1132 17.9094 15.1887C17.9848 15.2641 18.0272 15.3664 18.0272 15.4731C18.0263 16.1503 17.7569 16.7995 17.2781 17.2783C16.7992 17.7572 16.1501 18.0267 15.4729 18.0276Z" fill="#9AA1EB"/>
<path d="M10.8167 1.63642L9.2979 0.11791C9.2606 0.0805299 9.2163 0.0508799 9.1675 0.0306499C9.1187 0.0104099 9.0664 0 9.0136 0C8.9608 0 8.9085 0.0104099 8.8597 0.0306499C8.8109 0.0508799 8.7665 0.0805299 8.7292 0.11791L7.2105 1.63642C7.135 1.71187 7.0927 1.81419 7.0927 1.92088C7.0927 2.02758 7.135 2.1299 7.2105 2.20534C7.2859 2.28079 7.3883 2.32317 7.4949 2.32317C7.6016 2.32317 7.704 2.28079 7.7794 2.20534L8.6113 1.37345V5.38327C8.6113 5.48996 8.6537 5.59228 8.7291 5.66772C8.8046 5.74316 8.9069 5.78554 9.0136 5.78554C9.1203 5.78554 9.2226 5.74316 9.298 5.66772C9.3735 5.59228 9.4158 5.48996 9.4158 5.38327V1.37345L10.2477 2.20534C10.2851 2.2427 10.3294 2.27233 10.3782 2.29255C10.4271 2.31277 10.4794 2.32317 10.5322 2.32317C10.585 2.32317 10.6373 2.31277 10.6861 2.29255C10.735 2.27233 10.7793 2.2427 10.8167 2.20534C10.854 2.16799 10.8836 2.12364 10.9039 2.07483C10.9241 2.02602 10.9345 1.97371 10.9345 1.92088C10.9345 1.86805 10.9241 1.81574 10.9039 1.76693C10.8836 1.71813 10.854 1.67378 10.8167 1.63642Z" fill="#BFFDFF"/>
<path d="M2.9128 2.86851C2.8755 2.83113 2.8312 2.80147 2.7823 2.78123C2.7335 2.761 2.6812 2.75058 2.6284 2.75058C2.5755 2.75058 2.5232 2.761 2.4744 2.78123C2.4256 2.80147 2.3813 2.83113 2.3439 2.86851L0.82541 4.38702C0.74996 4.46247 0.70758 4.56479 0.70758 4.67148C0.70758 4.77818 0.74996 4.8805 0.82541 4.95594C0.90085 5.03139 1.0032 5.07377 1.1099 5.07377C1.2166 5.07377 1.3189 5.03139 1.3943 4.95594L2.2262 4.12405V8.1339C2.2262 8.2406 2.2686 8.3429 2.344 8.4183C2.4195 8.4938 2.5218 8.5361 2.6285 8.5361C2.7352 8.5361 2.8375 8.4938 2.9129 8.4183C2.9884 8.3429 3.0308 8.2406 3.0308 8.1339V4.12405L3.8627 4.95594C3.9385 5.02921 4.0402 5.06973 4.1456 5.06879C4.2511 5.06786 4.352 5.02553 4.4266 4.95093C4.5011 4.87633 4.5434 4.77543 4.5443 4.66995C4.5452 4.56448 4.5046 4.46288 4.4314 4.38702L2.9128 2.86851Z" fill="#BFFDFF"/>
<path d="M17.2017 4.38702L15.6831 2.86851C15.6458 2.83113 15.6015 2.80147 15.5527 2.78123C15.5038 2.761 15.4515 2.75058 15.3987 2.75058C15.3458 2.75058 15.2935 2.761 15.2447 2.78123C15.1959 2.80147 15.1516 2.83113 15.1142 2.86851L13.5957 4.38702C13.5573 4.42412 13.5266 4.4685 13.5055 4.51758C13.4844 4.56665 13.4733 4.61944 13.4729 4.67285C13.4724 4.72626 13.4826 4.77923 13.5028 4.82868C13.523 4.87812 13.5528 4.92304 13.5906 4.96081C13.6284 4.99859 13.6733 5.02847 13.7227 5.04871C13.7722 5.06894 13.8251 5.07913 13.8785 5.07868C13.9319 5.07823 13.9847 5.06714 14.0338 5.04607C14.0829 5.02499 14.1273 4.99436 14.1644 4.95594L14.9963 4.12405V8.1339C14.9963 8.2406 15.0387 8.3429 15.1141 8.4183C15.1896 8.4938 15.2919 8.5361 15.3986 8.5361C15.5053 8.5361 15.6076 8.4938 15.683 8.4183C15.7585 8.3429 15.8008 8.2406 15.8008 8.1339V4.12405L16.6327 4.95594C16.7082 5.03139 16.8105 5.07377 16.9172 5.07377C17.0239 5.07377 17.1262 5.03139 17.2017 4.95594C17.2771 4.8805 17.3195 4.77818 17.3195 4.67148C17.3195 4.56479 17.2771 4.46247 17.2017 4.38702Z" fill="#BFFDFF"/>
<path d="M6.8443 6.25539C6.7915 6.25536 6.7391 6.26574 6.6903 6.28595C6.6415 6.30615 6.5971 6.33578 6.5598 6.37314C6.5224 6.4105 6.4928 6.45486 6.4726 6.50368C6.4524 6.5525 6.442 6.60482 6.442 6.65766V10.0482C6.442 10.1549 6.4844 10.2572 6.5598 10.3327C6.6353 10.4081 6.7376 10.4505 6.8443 10.4505C6.951 10.4505 7.0533 10.4081 7.1287 10.3327C7.2042 10.2572 7.2466 10.1549 7.2466 10.0482V6.65789C7.2466 6.60504 7.2362 6.55271 7.216 6.50387C7.1958 6.45504 7.1662 6.41067 7.1288 6.37329C7.0915 6.33591 7.0471 6.30626 6.9983 6.28603C6.9495 6.2658 6.8971 6.25539 6.8443 6.25539Z" fill="#BFFDFF"/>
<path d="M11.183 6.25539C11.1302 6.25536 11.0779 6.26574 11.0291 6.28595C10.9802 6.30615 10.9359 6.33578 10.8985 6.37314C10.8612 6.4105 10.8315 6.45486 10.8113 6.50368C10.7911 6.5525 10.7807 6.60482 10.7808 6.65766V10.0482C10.7808 10.1549 10.8232 10.2572 10.8986 10.3327C10.974 10.4081 11.0764 10.4505 11.183 10.4505C11.2897 10.4505 11.3921 10.4081 11.4675 10.3327C11.5429 10.2572 11.5853 10.1549 11.5853 10.0482V6.65789C11.5853 6.60504 11.575 6.55271 11.5548 6.50387C11.5346 6.45504 11.5049 6.41067 11.4676 6.37329C11.4302 6.33591 11.3859 6.30626 11.337 6.28603C11.2882 6.2658 11.2359 6.25539 11.183 6.25539Z" fill="#BFFDFF"/>
</g>
</svg>
