<svg width="12" height="21" viewBox="0 0 12 21" fill="none" xmlns="http://www.w3.org/2000/svg">
<path d="M8.29709 2.50452H11.4052C11.5751 2.50452 11.7128 2.36678 11.7128 2.19688C11.7128 2.02699 11.5751 1.88926 11.4052 1.88926H8.29709C8.12716 1.88926 7.98948 2.02699 7.98948 2.19688C7.98948 2.36678 8.12724 2.50452 8.29709 2.50452Z" fill="#4F667A"/>
<path d="M8.29709 3.9249H9.85109C10.021 3.9249 10.1588 3.78716 10.1588 3.61727C10.1588 3.44737 10.021 3.30964 9.85109 3.30964H8.29709C8.12716 3.30964 7.98948 3.44737 7.98948 3.61727C7.98948 3.78716 8.12724 3.9249 8.29709 3.9249Z" fill="#4F667A"/>
<path d="M11.4058 4.74524H8.29768C8.12775 4.74524 7.99007 4.88298 7.99007 5.05288C7.99007 5.22277 8.12775 5.3605 8.29768 5.3605H11.4058C11.5757 5.3605 11.7134 5.22277 11.7134 5.05288C11.7134 4.88298 11.5756 4.74524 11.4058 4.74524Z" fill="#4F667A"/>
<path d="M8.29709 6.78089H9.85109C10.021 6.78089 10.1588 6.64315 10.1588 6.47326C10.1588 6.30337 10.021 6.16563 9.85109 6.16563H8.29709C8.12716 6.16563 7.98948 6.30337 7.98948 6.47326C7.98948 6.64315 8.12724 6.78089 8.29709 6.78089Z" fill="#4F667A"/>
<path d="M11.4058 7.58011H8.29768C8.12775 7.58011 7.99007 7.71784 7.99007 7.88774C7.99007 8.05763 8.12775 8.19537 8.29768 8.19537H11.4058C11.5757 8.19537 11.7134 8.05763 11.7134 7.88774C11.7134 7.71784 11.5756 7.58011 11.4058 7.58011Z" fill="#4F667A"/>
<path d="M8.29709 9.61574H9.85109C10.021 9.61574 10.1588 9.47798 10.1588 9.30813C10.1588 9.1382 10.021 9.00052 9.85109 9.00052H8.29709C8.12716 9.00052 7.98948 9.1382 7.98948 9.30813C7.98948 9.47798 8.12724 9.61574 8.29709 9.61574Z" fill="#4F667A"/>
<path d="M11.4058 10.4417H8.29768C8.12775 10.4417 7.99007 10.5795 7.99007 10.7493C7.99007 10.9193 8.12775 11.057 8.29768 11.057H11.4058C11.5757 11.057 11.7134 10.9193 11.7134 10.7493C11.7134 10.5795 11.5756 10.4417 11.4058 10.4417Z" fill="#4F667A"/>
<path d="M9.85109 11.8621H8.29709C8.12716 11.8621 7.98948 11.9998 7.98948 12.1698C7.98948 12.3396 8.12716 12.4774 8.29709 12.4774H9.85109C10.021 12.4774 10.1588 12.3396 10.1588 12.1698C10.1588 11.9998 10.021 11.8621 9.85109 11.8621Z" fill="#4F667A"/>
<path d="M8.75842 16.621C8.75842 17.8023 8.29491 18.9093 7.45407 19.7392C6.62801 20.5537 5.53853 21 4.37984 21C4.35892 21 4.338 21 4.31709 20.9996C4.1317 20.9967 3.94833 20.9828 3.76706 20.9569C2.84086 20.8265 1.98032 20.4016 1.30149 19.7293C0.490165 18.9261 0.0283077 17.8598 0.00124289 16.7273C-0.0352635 15.1924 0.73463 13.7539 2.02093 12.9307V2.35849C2.02093 1.27072 2.76089 0.352748 3.7642 0.0816243C3.96026 0.0283019 4.16656 0 4.37942 0C5.67965 0 6.73788 1.05784 6.73788 2.35849V12.9307C7.98856 13.7322 8.75842 15.1296 8.75842 16.621Z" fill="#E9F5FF"/>
<path d="M8.75842 16.621C8.75842 17.8023 8.29491 18.9093 7.45407 19.7392C6.62793 20.5537 5.53853 21 4.37983 21C3.61319 21 3.14928 21 3.14928 21C3.35765 21 3.56397 20.9856 3.76697 20.9569C4.69156 20.8273 5.54634 20.4073 6.22355 19.7392C7.06481 18.9093 7.5279 17.8023 7.5279 16.621C7.5279 15.1296 6.75796 14.9701 5.50737 14.1686V2.35849C5.50737 1.27072 4.76699 0.352748 3.76411 0.0816243C3.96017 0.0283019 4.16647 0 4.37941 0C5.67965 0 6.73788 1.05784 6.73788 2.35849V12.9307C7.98847 13.7322 8.75842 15.1296 8.75842 16.621Z" fill="#CDEAF7"/>
<path d="M7.5279 16.6271C7.5279 17.4762 7.19484 18.2724 6.58979 18.8688C5.99633 19.4545 5.21127 19.7756 4.37656 19.7756C4.36219 19.7756 4.34825 19.7756 4.33431 19.7752C4.17681 19.7732 4.0209 19.7588 3.86752 19.7338C3.2297 19.6284 2.63824 19.3273 2.16736 18.8609C1.58327 18.283 1.25062 17.5168 1.23135 16.7042C1.20427 15.557 1.80312 14.4848 2.7941 13.9056C3.07588 13.7411 3.25144 13.4356 3.25144 13.1091V2.36463C3.25144 1.92739 3.50165 1.54716 3.86668 1.36012C4.02048 1.28096 4.19487 1.23666 4.37941 1.23666C5.00127 1.23666 5.50695 1.74281 5.50695 2.36463V13.1091C5.50695 13.4356 5.68251 13.7411 5.96433 13.9056C6.92865 14.4693 7.5279 15.5119 7.5279 16.6271Z" fill="#FF6E6E"/>
<path d="M7.5279 16.6271C7.5279 17.4762 7.19484 18.2724 6.58979 18.8688C5.99633 19.4545 5.21127 19.7756 4.37656 19.7756C4.3622 19.7756 4.34825 19.7756 4.33431 19.7752C4.17681 19.7732 4.0209 19.7588 3.86752 19.7338C4.50617 19.6296 5.09518 19.3319 5.5644 18.8688C6.16937 18.2724 6.50243 17.4762 6.50243 16.6271C6.50243 15.5119 5.90318 14.4693 4.93886 13.9056C4.65712 13.7411 4.48156 13.4356 4.48156 13.1091V2.36463C4.48156 1.92739 4.23132 1.54757 3.86668 1.36012C4.02048 1.28096 4.19487 1.23666 4.37942 1.23666C5.00127 1.23666 5.50695 1.74281 5.50695 2.36463V13.1091C5.50695 13.4356 5.68251 13.7411 5.96433 13.9056C6.92865 14.4693 7.5279 15.5119 7.5279 16.6271Z" fill="#F44E92"/>
<path d="M5.50695 2.36463V5.0529H3.25143V2.36463C3.25143 1.92739 3.50163 1.54716 3.86668 1.36012C4.02048 1.28096 4.19478 1.23666 4.37942 1.23666C5.00118 1.23666 5.50695 1.74281 5.50695 2.36463Z" fill="#4F667A"/>
<path d="M5.50695 2.36463V5.0529H4.48156V2.36463C4.48156 1.92739 4.23132 1.54757 3.86668 1.36012C4.02048 1.28096 4.19487 1.23666 4.37942 1.23666C5.00127 1.23666 5.50695 1.74281 5.50695 2.36463Z" fill="#3A5366"/>
</svg>
